<svg width="29" height="23" viewBox="0 0 29 23" fill="none" xmlns="http://www.w3.org/2000/svg">
<path d="M17.2 4.9375H20.3553C20.6855 4.9375 20.8506 4.9375 21.006 4.97376C21.1437 5.00592 21.2754 5.05895 21.3962 5.13091C21.5324 5.21208 21.6492 5.32558 21.8826 5.55258L27.3674 10.8849C27.6008 11.1119 27.7176 11.2254 27.8011 11.3579C27.8751 11.4753 27.9296 11.6033 27.9627 11.7373C28 11.8883 28 12.0488 28 12.3698V16.0938C28 16.7053 28 17.0111 27.8972 17.2523C27.7602 17.5739 27.4974 17.8294 27.1666 17.9626C26.9185 18.0625 26.604 18.0625 25.975 18.0625M19.225 18.0625H17.2M17.2 18.0625V5.2C17.2 3.72986 17.2 2.99479 16.9057 2.43327C16.6469 1.93935 16.2338 1.53778 15.7258 1.28611C15.1482 1 14.3921 1 12.88 1H5.32C3.80786 1 3.05179 1 2.47423 1.28611C1.96619 1.53778 1.55314 1.93935 1.29428 2.43327C1 2.99479 1 3.72986 1 5.2V15.4375C1 16.8872 2.20883 18.0625 3.7 18.0625M17.2 18.0625H11.8M11.8 18.0625C11.8 20.2371 9.98675 22 7.75 22C5.51325 22 3.7 20.2371 3.7 18.0625M11.8 18.0625C11.8 15.8879 9.98675 14.125 7.75 14.125C5.51325 14.125 3.7 15.8879 3.7 18.0625M25.975 18.7188C25.975 20.5309 24.464 22 22.6 22C20.736 22 19.225 20.5309 19.225 18.7188C19.225 16.9066 20.736 15.4375 22.6 15.4375C24.464 15.4375 25.975 16.9066 25.975 18.7188Z" stroke="#585858" stroke-width="1.5" stroke-linecap="square"/>
</svg>
