<svg width="29" height="20" viewBox="0 0 29 20" fill="none" xmlns="http://www.w3.org/2000/svg">
<path d="M28 7.42857H1M13.15 12.5714H6.4M1 5.11429L1 14.8857C1 16.3258 1 17.0459 1.29428 17.596C1.55314 18.0798 1.96619 18.4732 2.47423 18.7197C3.05179 19 3.80786 19 5.32 19L23.68 19C25.1921 19 25.9482 19 26.5258 18.7197C27.0338 18.4732 27.4469 18.0798 27.7057 17.596C28 17.0459 28 16.3258 28 14.8857V5.11429C28 3.67415 28 2.95408 27.7057 2.40403C27.4469 1.92018 27.0338 1.5268 26.5258 1.28027C25.9482 1 25.1921 1 23.68 1L5.32 1C3.80786 1 3.05179 1 2.47423 1.28027C1.96619 1.5268 1.55314 1.92018 1.29428 2.40402C1 2.95408 1 3.67415 1 5.11429Z" stroke="#585858" stroke-width="1.5" stroke-linecap="square"/>
</svg>
