<svg width="29" height="21" viewBox="0 0 29 21" fill="none" xmlns="http://www.w3.org/2000/svg">
<path d="M3.91671 5.1667C3.91671 5.39682 3.73016 5.58336 3.50004 5.58336C3.26992 5.58336 3.08337 5.39682 3.08337 5.1667C3.08337 4.93658 3.26992 4.75003 3.50004 4.75003C3.73016 4.75003 3.91671 4.93658 3.91671 5.1667Z" fill="#1D1B1A"/>
<path d="M6.41671 5.1667C6.41671 5.39682 6.23016 5.58336 6.00004 5.58336C5.76992 5.58336 5.58337 5.39682 5.58337 5.1667C5.58337 4.93658 5.76992 4.75003 6.00004 4.75003C6.23016 4.75003 6.41671 4.93658 6.41671 5.1667Z" fill="#1D1B1A"/>
<path d="M8.91671 5.16667C8.91671 5.39679 8.73016 5.58333 8.50004 5.58333C8.26992 5.58333 8.08337 5.39679 8.08337 5.16667C8.08337 4.93655 8.26992 4.75 8.50004 4.75C8.73016 4.75 8.91671 4.93655 8.91671 5.16667Z" fill="#1D1B1A"/>
<path d="M3.91671 5.1667C3.91671 5.39682 3.73016 5.58336 3.50004 5.58336C3.26992 5.58336 3.08337 5.39682 3.08337 5.1667C3.08337 4.93658 3.26992 4.75003 3.50004 4.75003C3.73016 4.75003 3.91671 4.93658 3.91671 5.1667Z" stroke="#1D1B1A" stroke-linecap="round" stroke-linejoin="round"/>
<path d="M6.41671 5.1667C6.41671 5.39682 6.23016 5.58336 6.00004 5.58336C5.76992 5.58336 5.58337 5.39682 5.58337 5.1667C5.58337 4.93658 5.76992 4.75003 6.00004 4.75003C6.23016 4.75003 6.41671 4.93658 6.41671 5.1667Z" stroke="#1D1B1A" stroke-linecap="round" stroke-linejoin="round"/>
<path d="M8.91671 5.16667C8.91671 5.39679 8.73016 5.58333 8.50004 5.58333C8.26992 5.58333 8.08337 5.39679 8.08337 5.16667C8.08337 4.93655 8.26992 4.75 8.50004 4.75C8.73016 4.75 8.91671 4.93655 8.91671 5.16667Z" stroke="#1D1B1A" stroke-linecap="round" stroke-linejoin="round"/>
<path d="M1 9.07044V1H11V9.12581C11 9.12581 9.29443 9.12581 8.77778 9.12581V10.391C8.77778 10.6797 8.77778 10.824 8.7171 10.8981C8.66432 10.9626 8.58429 11.0001 8.4997 11C8.40243 10.9999 8.28685 10.9097 8.05569 10.7294L6.73044 9.69561C6.45971 9.48443 6.32435 9.37883 6.17362 9.30374C6.03989 9.23712 5.89754 9.18843 5.75044 9.159C5.58463 9.12581 5.41128 9.12581 5.06458 9.12581L1 9.12581" stroke="#1D1B1A" stroke-width="1.5" stroke-linecap="round" stroke-linejoin="round"/>
<path d="M13 21V15H28V21" stroke="#1D1B1A" stroke-width="1.5"/>
<path d="M20.5 11C22.9853 11 25 8.98528 25 6.5C25 4.01472 22.9853 2 20.5 2C18.0147 2 16 4.01472 16 6.5C16 8.98528 18.0147 11 20.5 11Z" stroke="#1D1B1A" stroke-width="1.5" stroke-linecap="round" stroke-linejoin="round"/>
</svg>
