<svg width="24" height="21" viewBox="0 0 24 21" fill="none" xmlns="http://www.w3.org/2000/svg">
<path d="M12 20L21.4509 10.2154C22.4428 9.203 23 7.82994 23 6.39824C23 4.96654 22.4428 3.59347 21.4509 2.58111C20.4591 1.56874 19.1139 1 17.7112 1C16.3085 1 14.9633 1.56874 13.9714 2.58111L12 4.45513L10.0286 2.58111C9.03674 1.56874 7.69151 1 6.28882 1C4.88614 1 3.54091 1.56874 2.54906 2.58111C1.55721 3.59347 1 4.96654 1 6.39824C1 7.82994 1.55721 9.203 2.54906 10.2154L12 20Z" stroke="#1D1B1A" stroke-width="1.5" stroke-linecap="round" stroke-linejoin="round"/>
</svg>
