<svg width="16" height="16" viewBox="0 0 16 16" fill="none" xmlns="http://www.w3.org/2000/svg">
<path d="M8 12.6666C8.48325 12.6666 8.875 12.2749 8.875 11.7916C8.875 11.3084 8.48325 10.9166 8 10.9166C7.51675 10.9166 7.125 11.3084 7.125 11.7916C7.125 12.2749 7.51675 12.6666 8 12.6666Z" fill="#585858"/>
<path d="M8.00001 9.16667V8.58333C9.28844 8.58333 10.3333 7.66896 10.3333 6.54167C10.3333 5.41437 9.28844 4.5 8.00001 4.5C6.71157 4.5 5.66667 5.41437 5.66667 6.54167V6.83333" stroke="#585858" stroke-linecap="round" stroke-linejoin="round"/>
<path d="M8 15C11.866 15 15 11.866 15 8C15 4.13401 11.866 1 8 1C4.13401 1 1 4.13401 1 8C1 11.866 4.13401 15 8 15Z" stroke="#585858" stroke-linecap="round" stroke-linejoin="round"/>
</svg>
