<svg width="22" height="22" viewBox="0 0 22 22" fill="none" xmlns="http://www.w3.org/2000/svg">
<path d="M10.8923 0.0888672C13.8517 0.0888672 14.221 0.0997594 15.3821 0.154221C16.5421 0.208682 17.3318 0.390584 18.0268 0.660713C18.7457 0.937378 19.3513 1.31207 19.9569 1.9166C20.5107 2.4611 20.9393 3.11975 21.2128 3.84671C21.4818 4.54055 21.6648 5.33133 21.7193 6.49136C21.7705 7.65248 21.7846 8.02173 21.7846 10.9812C21.7846 13.9406 21.7737 14.3099 21.7193 15.471C21.6648 16.631 21.4818 17.4207 21.2128 18.1156C20.9401 18.843 20.5114 19.5018 19.9569 20.0457C19.4122 20.5994 18.7536 21.028 18.0268 21.3016C17.3329 21.5707 16.5421 21.7537 15.3821 21.8081C14.221 21.8593 13.8517 21.8735 10.8923 21.8735C7.93287 21.8735 7.56362 21.8626 6.4025 21.8081C5.24247 21.7537 4.45277 21.5707 3.75785 21.3016C3.03059 21.0288 2.37183 20.6001 1.82773 20.0457C1.27375 19.5013 0.845168 18.8427 0.571846 18.1156C0.301717 17.4218 0.119815 16.631 0.0653538 15.471C0.0141599 14.3099 0 13.9406 0 10.9812C0 8.02173 0.0108922 7.65248 0.0653538 6.49136C0.119815 5.33024 0.301717 4.54164 0.571846 3.84671C0.844411 3.1193 1.2731 2.46047 1.82773 1.9166C2.37199 1.36243 3.03071 0.933815 3.75785 0.660713C4.45277 0.390584 5.24138 0.208682 6.4025 0.154221C7.56362 0.103027 7.93287 0.0888672 10.8923 0.0888672ZM10.8923 5.53502C9.4479 5.53502 8.06265 6.10881 7.04129 7.13016C6.01994 8.15151 5.44615 9.53676 5.44615 10.9812C5.44615 12.4256 6.01994 13.8108 7.04129 14.8322C8.06265 15.8535 9.4479 16.4273 10.8923 16.4273C12.3367 16.4273 13.722 15.8535 14.7433 14.8322C15.7647 13.8108 16.3385 12.4256 16.3385 10.9812C16.3385 9.53676 15.7647 8.15151 14.7433 7.13016C13.722 6.10881 12.3367 5.53502 10.8923 5.53502ZM17.9723 5.26271C17.9723 4.90161 17.8289 4.5553 17.5735 4.29996C17.3182 4.04462 16.9719 3.90117 16.6108 3.90117C16.2497 3.90117 15.9033 4.04462 15.648 4.29996C15.3927 4.5553 15.2492 4.90161 15.2492 5.26271C15.2492 5.62381 15.3927 5.97013 15.648 6.22547C15.9033 6.4808 16.2497 6.62425 16.6108 6.62425C16.9719 6.62425 17.3182 6.4808 17.5735 6.22547C17.8289 5.97013 17.9723 5.62381 17.9723 5.26271ZM10.8923 7.71348C11.759 7.71348 12.5901 8.05775 13.2029 8.67057C13.8157 9.28338 14.16 10.1145 14.16 10.9812C14.16 11.8478 13.8157 12.679 13.2029 13.2918C12.5901 13.9046 11.759 14.2489 10.8923 14.2489C10.0257 14.2489 9.19451 13.9046 8.5817 13.2918C7.96889 12.679 7.62461 11.8478 7.62461 10.9812C7.62461 10.1145 7.96889 9.28338 8.5817 8.67057C9.19451 8.05775 10.0257 7.71348 10.8923 7.71348Z" fill="#1D1B1A"/>
</svg>
