<svg width="12" height="16" viewBox="0 0 12 16" fill="none" xmlns="http://www.w3.org/2000/svg">
<path d="M5.97046 15.0243L5.96975 15.0238C5.87121 14.9563 4.48753 13.9919 3.13371 12.4343C1.77236 10.8681 0.500106 8.77001 0.5 6.42641C0.501724 4.9995 1.07954 3.62966 2.10971 2.61788C3.14011 1.60586 4.539 1.03498 6 1.0332C7.461 1.03498 8.85989 1.60586 9.89029 2.61788C10.9205 3.62972 11.4984 4.99968 11.5 6.4267C11.4998 8.77018 10.2276 10.8682 8.86629 12.4343C7.51247 13.9919 6.12879 14.9563 6.03025 15.0238L6.02954 15.0243C6.02173 15.0297 6.01141 15.0332 6 15.0332C5.98859 15.0332 5.97827 15.0297 5.97046 15.0243ZM7.48648 4.22636C7.04571 3.9371 6.52843 3.78324 6 3.78324C5.29161 3.78324 4.61047 4.05954 4.10687 4.55415C3.60296 5.04907 3.31818 5.72225 3.31818 6.42612C3.31818 6.95086 3.47666 7.46305 3.77248 7.89788C4.06823 8.33261 4.48764 8.67009 4.97664 8.86902C5.46556 9.06793 6.00306 9.11983 6.52152 9.01855C7.04003 8.91725 7.51751 8.667 7.89313 8.29809C8.26885 7.92907 8.52577 7.45782 8.62995 6.94342C8.73414 6.42896 8.68058 5.89581 8.47644 5.41178C8.27235 4.92784 7.92735 4.51568 7.48648 4.22636Z" stroke="#585858"/>
</svg>
