<svg width="20" height="24" viewBox="0 0 20 24" fill="none" xmlns="http://www.w3.org/2000/svg">
<path d="M0.541504 8.60088C0.541504 7.59465 0.752032 6.59561 1.17548 5.60615C1.59893 4.61669 2.2042 3.6967 2.99368 2.85099C3.78316 2.00528 4.81906 1.31768 6.10376 0.79061C7.38846 0.263537 8.81192 0 10.3741 0C12.91 0 14.9914 0.783423 16.6182 2.34787C18.245 3.91232 19.0584 5.75708 19.0584 7.88215C19.0584 10.6133 18.3694 12.8702 16.989 14.6503C15.6086 16.4303 13.8263 17.3216 11.6421 17.3216C10.9244 17.3216 10.2497 17.1539 9.62054 16.8184C8.99134 16.483 8.54875 16.0757 8.29277 15.5966L7.33582 19.3819C7.25688 19.6862 7.15161 19.9929 7.02482 20.3043C6.89802 20.6158 6.75687 20.9152 6.60615 21.2027C6.45543 21.4902 6.30232 21.761 6.1516 22.0173C6.00088 22.2737 5.84777 22.5132 5.69705 22.736C5.54634 22.9588 5.41475 23.1481 5.30231 23.299C5.18987 23.45 5.087 23.5818 4.99131 23.6944L4.84776 23.886C4.79992 23.9507 4.73532 23.9747 4.65637 23.9579C4.57743 23.9411 4.52958 23.8932 4.51283 23.8141C4.51283 23.7974 4.50087 23.6872 4.47695 23.4787C4.45302 23.2703 4.4291 23.0523 4.40518 22.8199C4.38125 22.5875 4.35733 22.288 4.33341 21.9215C4.30948 21.5549 4.3023 21.1979 4.30948 20.8553C4.31666 20.5127 4.34058 20.1318 4.38125 19.7173C4.42192 19.3029 4.48173 18.9195 4.56068 18.5674C4.73532 17.8175 5.32624 15.3163 6.33103 11.0685C6.20424 10.8122 6.09897 10.5055 6.02002 10.1462C5.94108 9.7868 5.9004 9.49451 5.9004 9.2717L5.87648 8.91234C5.87648 7.88933 6.13486 7.03883 6.654 6.36082C7.17314 5.68281 7.79755 5.34261 8.53201 5.34261C9.12292 5.34261 9.57986 5.53906 9.90762 5.92958C10.2354 6.32009 10.3981 6.81123 10.3981 7.40299C10.3981 7.76954 10.3311 8.22235 10.1947 8.75661C10.0583 9.29087 9.87891 9.90659 9.65642 10.6014C9.43393 11.2961 9.27364 11.8592 9.17795 12.2904C9.01766 13.0091 9.15881 13.632 9.59661 14.1591C10.0344 14.6862 10.6205 14.9497 11.355 14.9497C12.6158 14.9497 13.6565 14.2358 14.477 12.8055C15.2976 11.3752 15.7091 9.64784 15.7091 7.61861C15.7091 6.06853 15.2067 4.80356 14.2019 3.82128C13.1971 2.83901 11.7928 2.34787 9.99135 2.34787C7.98176 2.34787 6.35017 2.99474 5.09896 4.28846C3.84775 5.58219 3.22095 7.13226 3.22095 8.93629C3.22095 10.0072 3.52479 10.908 4.13005 11.6435C4.33819 11.8831 4.40039 12.1395 4.32144 12.4102C4.29034 12.4892 4.2425 12.6737 4.1779 12.9612C4.11331 13.2487 4.06546 13.4332 4.03436 13.5123C4.00326 13.6871 3.92192 13.8045 3.79512 13.8596C3.66833 13.9147 3.52479 13.9123 3.3645 13.8477C2.4243 13.4643 1.71855 12.8055 1.24725 11.8711C0.775956 10.9368 0.541504 9.84669 0.541504 8.60088Z" fill="#1D1B1A"/>
</svg>
