<svg width="26" height="26" viewBox="0 0 26 26" fill="none" xmlns="http://www.w3.org/2000/svg">
<path d="M13 7H7.6C6.80435 7 6.04129 6.68393 5.47868 6.12132C4.91607 5.55871 4.6 4.79565 4.6 4C4.6 3.20435 4.91607 2.44129 5.47868 1.87868C6.04129 1.31607 6.80435 1 7.6 1C11.8 1 13 7 13 7ZM13 7H18.4C19.1957 7 19.9587 6.68393 20.5213 6.12132C21.0839 5.55871 21.4 4.79565 21.4 4C21.4 3.20435 21.0839 2.44129 20.5213 1.87868C19.9587 1.31607 19.1957 1 18.4 1C14.2 1 13 7 13 7ZM13 7L13 25M1 15.4H25M1 10.84L1 21.16C1 22.5041 1 23.1762 1.26158 23.6896C1.49168 24.1412 1.85883 24.5083 2.31042 24.7384C2.82381 25 3.49587 25 4.84 25L21.16 25C22.5041 25 23.1762 25 23.6896 24.7384C24.1412 24.5083 24.5083 24.1412 24.7384 23.6896C25 23.1762 25 22.5041 25 21.16V10.84C25 9.49588 25 8.82381 24.7384 8.31043C24.5083 7.85884 24.1412 7.49168 23.6896 7.26159C23.1762 7 22.5041 7 21.16 7L4.84 7C3.49587 7 2.82381 7 2.31042 7.26158C1.85883 7.49168 1.49168 7.85883 1.26158 8.31042C1 8.82381 1 9.49587 1 10.84Z" stroke="#585858" stroke-width="1.5" stroke-linecap="square"/>
</svg>
