<svg width="19" height="21" viewBox="0 0 19 21" fill="none" xmlns="http://www.w3.org/2000/svg">
<path d="M12.3271 0H13.544C13.577 0.628906 13.6944 1.21365 13.8963 1.75424C14.4442 3.22178 15.4969 4.2324 17.0545 4.78611C17.6614 5.00227 18.3145 5.14049 18.9727 5.21145C18.9909 5.21336 19 5.22307 19 5.24057V8.71336C19 8.72676 18.9932 8.73318 18.9795 8.73264C17.0392 8.68287 15.2866 8.13408 13.7216 7.08627C13.719 7.08446 13.716 7.08338 13.7127 7.08314C13.7095 7.0829 13.7063 7.08351 13.7035 7.08491C13.7006 7.08631 13.6982 7.08844 13.6965 7.09106C13.6948 7.09369 13.6939 7.09672 13.6939 7.0998C13.6981 9.53504 13.6952 11.9418 13.6849 14.3202C13.6835 14.6303 13.6697 14.8944 13.6435 15.1126C13.3799 17.3082 12.0614 19.197 10.0411 20.2314C9.18376 20.6705 8.26887 20.9178 7.29646 20.9733C7.16376 20.981 7.03121 20.9899 6.89881 21H6.52764C4.71451 20.9241 3.00987 20.1543 1.79044 18.8713C0.717936 17.7429 0.0371049 16.2619 0.00549796 14.7271C-0.00347158 14.2862 -0.0107326 13.8411 0.0627322 13.4051C0.23472 12.3817 0.634363 11.4484 1.26166 10.6054C2.75701 8.59606 5.37783 7.51037 7.9397 7.93898C7.95451 7.94145 7.96205 7.94992 7.96234 7.96441C7.9686 8.29008 7.96974 8.61643 7.96575 8.94346C7.95408 9.87861 7.94155 10.832 7.92817 11.8035C7.92788 11.8226 7.91834 11.8292 7.89955 11.8232C7.1649 11.5935 6.35124 11.6246 5.66528 11.8999C5.43834 11.9909 5.20883 12.1231 4.97676 12.2965C4.46108 12.6815 4.09789 13.1925 3.88717 13.8296C3.84503 13.9568 3.81969 14.088 3.81115 14.2234C3.78951 14.5663 3.79235 14.86 3.81969 15.1044C3.84617 15.3415 3.91892 15.5831 4.03795 15.8292C4.49454 16.7738 5.42994 17.5088 6.53191 17.6023C6.72326 17.6184 6.94009 17.6168 7.18241 17.5973C8.27157 17.51 9.17323 16.8685 9.68107 15.9354C9.81291 15.6934 9.88509 15.4718 9.89762 15.2705C9.93891 14.6031 9.95998 13.8184 9.96084 12.9166C9.96454 9.36031 9.96696 5.84158 9.9681 2.36045C9.9681 1.5873 9.98048 0.810469 9.97835 0.0377344C9.97835 0.0318219 9.98076 0.0261453 9.98508 0.0219263C9.98939 0.0177074 9.99526 0.0152833 10.0014 0.0151758L12.3271 0Z" fill="black"/>
</svg>
