<svg width="16" height="17" viewBox="0 0 16 17" fill="none" xmlns="http://www.w3.org/2000/svg">
<path d="M3.42001 6.63148C3.41679 6.03526 3.61225 5.45494 3.97553 4.98216L3.97554 4.98215C3.98186 4.97393 3.98884 4.96465 3.99652 4.95445C4.04441 4.89085 4.11945 4.79119 4.22931 4.68626C4.32991 4.58351 4.44446 4.4954 4.56963 4.42452L4.58066 4.41827L4.59199 4.41259C4.5989 4.40913 4.60584 4.40573 4.61281 4.4024V4.31239L5.07809 4.28001C5.20521 4.27116 5.33275 4.26989 5.46002 4.27622L5.47215 4.27682L5.47214 4.27697C5.52458 4.28085 5.57555 4.28652 5.61664 4.29108L5.62002 4.29146L5.62414 4.29192L5.62413 4.29193C5.75965 4.30813 5.8946 4.3551 6.01157 4.42615C6.12491 4.49499 6.25935 4.61019 6.33681 4.78611L10.2352 9.46824C10.6623 9.66181 11.3 9.9396 11.3 9.9396L11.7656 10.1484C11.8432 10.186 11.9144 10.2748 11.9176 10.3604M3.42001 6.63148C3.42001 6.6314 3.42001 6.63132 3.42001 6.63124L3.92001 6.6292L3.42002 6.63199C3.42001 6.63182 3.42001 6.63165 3.42001 6.63148ZM3.42001 6.63148C3.422 7.10921 3.5466 7.56015 3.72778 7.96418L3.72778 7.96419L3.72863 7.96608C4.08462 8.75117 4.66105 9.5639 5.40805 10.3075L5.40808 10.3076C5.43414 10.3335 5.46064 10.36 5.48756 10.3869C5.63015 10.5296 5.78459 10.684 5.94796 10.8285L5.9488 10.8293C6.8899 11.6579 8.01138 12.2554 9.22402 12.5743L9.24954 12.5811L9.27563 12.5851L9.73083 12.6547L9.755 12.6583L9.77942 12.6597C9.93129 12.6679 10.0859 12.6595 10.2084 12.6529C10.232 12.6516 10.2544 12.6504 10.2754 12.6494L10.277 12.6493C10.582 12.6336 10.8798 12.5513 11.1495 12.4082C11.2668 12.3476 11.3813 12.2818 11.4926 12.2109L11.4926 12.2109L11.4968 12.2082L11.224 11.7892L11.4969 12.2082L11.497 12.2081L11.4971 12.208L11.4973 12.2079L11.4979 12.2075L11.4991 12.2067L11.5021 12.2047L11.5106 12.1991C11.5131 12.1973 11.516 12.1954 11.5192 12.1932C11.5243 12.1897 11.5302 12.1856 11.5368 12.181C11.558 12.1661 11.5871 12.1451 11.6236 12.1175C11.7492 12.0244 11.8372 11.9495 11.9485 11.8333C12.0501 11.7278 12.139 11.6033 12.2071 11.4609C12.3019 11.2627 12.3736 10.9548 12.4026 10.7201L12.4028 10.719C12.4258 10.5286 12.4205 10.4119 12.4175 10.3467C12.4174 10.3441 12.4173 10.3416 12.4172 10.3392C12.4171 10.3388 12.4171 10.3384 12.4171 10.338L11.9176 10.3604M11.9176 10.3604C11.9177 10.3634 11.9179 10.3665 11.918 10.3697C11.9206 10.4239 11.9245 10.5093 11.9064 10.6588L11.9176 10.3604ZM6.90001 9.142C6.92587 9.167 6.95156 9.19223 6.97726 9.21747C7.04696 9.28594 7.11676 9.3545 7.19041 9.4188L6.90001 9.142ZM6.90001 9.142C6.58527 8.84059 6.31098 8.49961 6.08401 8.1276L6.90001 9.142ZM0.715318 15.8206L1.56726 12.6901L1.62229 12.4879L1.5167 12.3069C0.848756 11.1618 0.497833 9.8596 0.500011 8.53402V8.5332C0.500011 4.39094 3.85775 1.0332 8.00001 1.0332C12.1423 1.0332 15.5 4.39094 15.5 8.5332C15.5 12.6755 12.1423 16.0332 8.00001 16.0332L7.9992 16.0332C6.67419 16.0353 5.3725 15.6847 4.22786 15.0173L4.0467 14.9116L3.84439 14.9668L0.715318 15.8206Z" stroke="#585858"/>
</svg>
