<svg width="28" height="21" viewBox="0 0 28 21" fill="none" xmlns="http://www.w3.org/2000/svg">
<path d="M26.6001 3.56101C26.4848 3.12634 26.2648 2.72456 25.9582 2.38881C25.6516 2.05306 25.2673 1.79297 24.8368 1.63001C20.6708 0.0743406 14.0362 0.0873184 13.674 0.0891636C13.312 0.0863379 6.67723 0.0742791 2.51116 1.63001C2.08077 1.79296 1.69642 2.05304 1.38983 2.38876C1.08324 2.72449 0.863201 3.12625 0.747863 3.56089C0.433381 4.73401 0.0585938 6.87913 0.0585938 10.4366C0.0585938 13.994 0.433381 16.1391 0.747803 17.3121C0.863121 17.7468 1.08315 18.1486 1.38975 18.4843C1.69634 18.8201 2.08069 19.0802 2.5111 19.2431C6.49921 20.7324 12.7496 20.7842 13.5939 20.7842C13.6693 20.7843 13.6786 20.7843 13.7541 20.7842C14.599 20.7841 20.8489 20.7323 24.8368 19.2431C25.2672 19.0802 25.6515 18.8201 25.9581 18.4844C26.2647 18.1486 26.4847 17.7469 26.6001 17.3122C26.9146 16.1391 27.2894 13.994 27.2894 10.4366C27.2894 6.87918 26.9146 4.73407 26.6001 3.56101ZM17.8338 10.8297L11.9986 14.6099C11.9254 14.6574 11.8403 14.6846 11.7524 14.6888C11.6645 14.6929 11.5771 14.6738 11.4995 14.6334C11.4219 14.5931 11.357 14.533 11.3118 14.4596C11.2665 14.3862 11.2426 14.3023 11.2427 14.2168V6.65636C11.2426 6.57083 11.2665 6.4869 11.3118 6.41353C11.357 6.34015 11.4219 6.28008 11.4995 6.23972C11.5771 6.19936 11.6645 6.18023 11.7524 6.18437C11.8403 6.1885 11.9254 6.21575 11.9986 6.2632L17.8338 10.0434C17.9004 10.0866 17.955 10.145 17.9928 10.2136C18.0306 10.2822 18.0503 10.3588 18.0503 10.4366C18.0503 10.5144 18.0306 10.5909 17.9928 10.6595C17.955 10.7281 17.9004 10.7866 17.8338 10.8297Z" fill="#1D1B1A"/>
</svg>
